<?xml version="1.0" standalone="no"?>
<!DOCTYPE svg PUBLIC "-//W3C//DTD SVG 1.1//EN"
"http://www.w3.org/Graphics/SVG/1.1/DTD/svg11.dtd">
<svg width="1106" height="424
" viewBox="0 0 1106 424"
xmlns="http://www.w3.org/2000/svg" version="1.1">
<title>Syntax Diagram Project</title>
<!-- LAST: -->
<!-- LINE: -->
<path d="M 120 160 L 640 160" fill="none" stroke="black" stroke-width="2" />
<!-- ARROS LEFT -->
<path d="M 640 160 L 620 150" fill="none" stroke="black" stroke-width="2" />
<!-- ARROW RIGHT -->
<path d="M 640 160 L 620 170" fill="none" stroke="black" stroke-width="2" />
<!-- BOUND LINE -->
<path d="M 185 160 L 200 175" fill="none" stroke="black" stroke-width="2" />
<!-- LINE: -->
<path d="M 200 175 L 200 260" fill="none" stroke="black" stroke-width="2" />
<!-- LINE: -->
<path d="M 200 260 L 440 260" fill="none" stroke="black" stroke-width="2" />
<!-- ARROS LEFT -->
<path d="M 330 260 L 310 250" fill="none" stroke="black" stroke-width="2" />
<!-- ARROW RIGHT -->
<path d="M 330 260 L 310 270" fill="none" stroke="black" stroke-width="2" />
<!-- LAST: -->
<!-- LINE: -->
<path d="M 440 260 L 440 175" fill="none" stroke="black" stroke-width="2" />
<!-- xa-xa-xa-->
<path d="M 440 175 L 455 160" fill="none" stroke="black" stroke-width="2" />
<!-- ARROS LEFT -->
<path d="M 440 175 L 430 195" fill="none" stroke="black" stroke-width="2" />
<!-- ARROW RIGHT -->
<path d="M 440 175 L 450 195" fill="none" stroke="black" stroke-width="2" />
<!-- BOUND LINE -->
<path d="M 265 160 L 280 145" fill="none" stroke="black" stroke-width="2" />
<!-- LINE: -->
<path d="M 280 145 L 280 80" fill="none" stroke="black" stroke-width="2" />
<!-- LINE: -->
<path d="M 280 80 L 560 80" fill="none" stroke="black" stroke-width="2" />
<!-- ARROS LEFT -->
<path d="M 430 80 L 410 70" fill="none" stroke="black" stroke-width="2" />
<!-- ARROW RIGHT -->
<path d="M 430 80 L 410 90" fill="none" stroke="black" stroke-width="2" />
<!-- LAST: -->
<!-- LINE: -->
<path d="M 560 80 L 560 145" fill="none" stroke="black" stroke-width="2" />
<!-- xa-xa-xa-->
<path d="M 560 145 L 575 160" fill="none" stroke="black" stroke-width="2" />
<!-- ARROS LEFT -->
<path d="M 560 145 L 550 125" fill="none" stroke="black" stroke-width="2" />
<!-- ARROW RIGHT -->
<path d="M 560 145 L 570 125" fill="none" stroke="black" stroke-width="2" />
</svg>
