<?xml version="1.0" standalone="no"?>
<!DOCTYPE svg PUBLIC "-//W3C//DTD SVG 1.1//EN"
"http://www.w3.org/Graphics/SVG/1.1/DTD/svg11.dtd">
<svg width="1920" height="894
" viewBox="0 0 1920 894"
xmlns="http://www.w3.org/2000/svg" version="1.1">
<title>Syntax Diagram Project</title>
<!-- LAST: -->
<!-- LINE: -->
<path d="M 220 300 L 920 300" fill="none" stroke="black" stroke-width="2" />
<!-- ARROS LEFT -->
<path d="M 920 300 L 900 290" fill="none" stroke="black" stroke-width="2" />
<!-- ARROW RIGHT -->
<path d="M 920 300 L 900 310" fill="none" stroke="black" stroke-width="2" />
<!-- BOUND LINE -->
<path d="M 325 300 L 340 285" fill="none" stroke="black" stroke-width="2" />
<!-- LINE: -->
<path d="M 340 285 L 340 160" fill="none" stroke="black" stroke-width="2" />
<!-- LINE: -->
<path d="M 340 160 L 640 160" fill="none" stroke="black" stroke-width="2" />
<!-- ARROS LEFT -->
<path d="M 500 160 L 480 150" fill="none" stroke="black" stroke-width="2" />
<!-- ARROW RIGHT -->
<path d="M 500 160 L 480 170" fill="none" stroke="black" stroke-width="2" />
<!-- LAST: -->
<!-- LINE: -->
<path d="M 640 160 L 640 285" fill="none" stroke="black" stroke-width="2" />
<!-- xa-xa-xa-->
<path d="M 640 285 L 655 300" fill="none" stroke="black" stroke-width="2" />
<!-- ARROS LEFT -->
<path d="M 640 285 L 630 265" fill="none" stroke="black" stroke-width="2" />
<!-- ARROW RIGHT -->
<path d="M 640 285 L 650 265" fill="none" stroke="black" stroke-width="2" />
<!-- Additional line Intersection: -->
<path d="M 340 205 L 355 220" fill="none" stroke="black" stroke-width="2" />
<!-- Additional line: -->
<path d="M 355 220 L 625 220" fill="none" stroke="black" stroke-width="2" />
<!-- Additional line Intersect 2: -->
<path d="M 640 205 L 625 220" fill="none" stroke="black" stroke-width="2" />
<!-- BOUND LINE -->
<path d="M 425 300 L 440 315" fill="none" stroke="black" stroke-width="2" />
<!-- LINE: -->
<path d="M 440 315 L 440 400" fill="none" stroke="black" stroke-width="2" />
<!-- LINE: -->
<path d="M 440 400 L 660 400" fill="none" stroke="black" stroke-width="2" />
<!-- LINE: -->
<path d="M 660 400 L 780 400" fill="none" stroke="black" stroke-width="2" />
<!-- ARROS LEFT -->
<path d="M 730 400 L 710 390" fill="none" stroke="black" stroke-width="2" />
<!-- ARROW RIGHT -->
<path d="M 730 400 L 710 410" fill="none" stroke="black" stroke-width="2" />
<!-- LAST: -->
<!-- LINE: -->
<path d="M 780 400 L 780 315" fill="none" stroke="black" stroke-width="2" />
<!-- xa-xa-xa-->
<path d="M 780 315 L 795 300" fill="none" stroke="black" stroke-width="2" />
<!-- ARROS LEFT -->
<path d="M 780 315 L 770 335" fill="none" stroke="black" stroke-width="2" />
<!-- ARROW RIGHT -->
<path d="M 780 315 L 790 335" fill="none" stroke="black" stroke-width="2" />
</svg>
