<?xml version="1.0" encoding="windows-1251" standalone="no"?>
<!DOCTYPE svg PUBLIC "-//W3C//DTD SVG 1.1//EN"
"http://www.w3.org/Graphics/SVG/1.1/DTD/svg11.dtd">
<svg width="1106" height="516
" viewBox="0 0 1106 516"
xmlns="http://www.w3.org/2000/svg" version="1.1">
<title>Syntax Diagram Project</title>
<text x = "78" y = "63" font-family = "Arial" font-size = "16"> &lt; Оператор_Case &gt; ::=   </text>
<!-- LINE: -->
<path d="M 40 120 L 120 120" fill="none" stroke="black" stroke-width="2" />
<!-- ARROS LEFT -->
<path d="M 120 120 L 100 110" fill="none" stroke="black" stroke-width="2" />
<!-- ARROW RIGHT -->
<path d="M 120 120 L 100 130" fill="none" stroke="black" stroke-width="2" />
<text x = "148" y = "125" font-family = "Arial" font-size = "16"> Case  </text>
<!-- LINE: -->
<path d="M 200 120 L 260 120" fill="none" stroke="black" stroke-width="2" />
<!-- ARROS LEFT -->
<path d="M 260 120 L 240 110" fill="none" stroke="black" stroke-width="2" />
<!-- ARROW RIGHT -->
<path d="M 260 120 L 240 130" fill="none" stroke="black" stroke-width="2" />
<text x = "280" y = "124" font-family = "Arial" font-size = "16"> &lt; Выражение &gt;  </text>
<text x = "472" y = "124" font-family = "Arial" font-size = "16"> of  </text>
<!-- LINE: -->
<path d="M 420 120 L 460 120" fill="none" stroke="black" stroke-width="2" />
<!-- ARROS LEFT -->
<path d="M 460 120 L 440 110" fill="none" stroke="black" stroke-width="2" />
<!-- ARROW RIGHT -->
<path d="M 460 120 L 440 130" fill="none" stroke="black" stroke-width="2" />
<!-- LINE: -->
<path d="M 500 120 L 600 120" fill="none" stroke="black" stroke-width="2" />
<!-- ARROS LEFT -->
<path d="M 600 120 L 580 110" fill="none" stroke="black" stroke-width="2" />
<!-- ARROW RIGHT -->
<path d="M 600 120 L 580 130" fill="none" stroke="black" stroke-width="2" />
<text x = "617" y = "123" font-family = "Arial" font-size = "16"> &lt; Диапазон &gt;  </text>
<!-- LINE: -->
<path d="M 740 120 L 800 120" fill="none" stroke="black" stroke-width="2" />
<!-- ARROS LEFT -->
<path d="M 800 120 L 780 110" fill="none" stroke="black" stroke-width="2" />
<!-- ARROW RIGHT -->
<path d="M 800 120 L 780 130" fill="none" stroke="black" stroke-width="2" />
<text x = "819" y = "126" font-family = "Arial" font-size = "16"> &lt; Оператор &gt;  </text>
<!-- BOUND LINE -->
<path d="M 765 120 L 780 135" fill="none" stroke="black" stroke-width="2" />
<!-- Line After Bound -->
<path d="M 780 135 L 780 180" fill="none" stroke="black" stroke-width="2" />
<!-- LINE: -->
<path d="M 780 180 L 680 180" fill="none" stroke="black" stroke-width="2" />
<!-- ARROS LEFT -->
<path d="M 680 180 L 700 170" fill="none" stroke="black" stroke-width="2" />
<!-- ARROW RIGHT -->
<path d="M 680 180 L 700 190" fill="none" stroke="black" stroke-width="2" />
<!-- LINE: -->
<path d="M 620 180 L 560 180" fill="none" stroke="black" stroke-width="2" />
<!-- LAST VERTICAL: -->
<!-- LINE: -->
<path d="M 560 180 L 560 135" fill="none" stroke="black" stroke-width="2" />
<!-- xa-xa-xa-->
<path d="M 560 135 L 575 120" fill="none" stroke="black" stroke-width="2" />
<!-- ARROS LEFT -->
<path d="M 560 135 L 550 155" fill="none" stroke="black" stroke-width="2" />
<!-- ARROW RIGHT -->
<path d="M 560 135 L 570 155" fill="none" stroke="black" stroke-width="2" />
<text x = "648" y = "185" font-family = "Arial" font-size = "16"> ,  </text>
<!-- LINE: -->
<path d="M 940 120 L 1020 120" fill="none" stroke="black" stroke-width="2" />
<!-- LINE: -->
<path d="M 1020 120 L 1020 280" fill="none" stroke="black" stroke-width="2" />
<!-- LINE: -->
<path d="M 1020 280 L 40 280" fill="none" stroke="black" stroke-width="2" />
<!-- LINE: -->
<path d="M 40 280 L 40 340" fill="none" stroke="black" stroke-width="2" />
<!-- LINE: -->
<path d="M 40 340 L 180 340" fill="none" stroke="black" stroke-width="2" />
<!-- ARROS LEFT -->
<path d="M 180 340 L 160 330" fill="none" stroke="black" stroke-width="2" />
<!-- ARROW RIGHT -->
<path d="M 180 340 L 160 350" fill="none" stroke="black" stroke-width="2" />
<!-- BOUND LINE -->
<path d="M 945 120 L 960 135" fill="none" stroke="black" stroke-width="2" />
<!-- Line After Bound -->
<path d="M 960 135 L 960 240" fill="none" stroke="black" stroke-width="2" />
<!-- LINE: -->
<path d="M 960 240 L 740 240" fill="none" stroke="black" stroke-width="2" />
<!-- ARROS LEFT -->
<path d="M 740 240 L 760 230" fill="none" stroke="black" stroke-width="2" />
<!-- ARROW RIGHT -->
<path d="M 740 240 L 760 250" fill="none" stroke="black" stroke-width="2" />
<!-- LINE: -->
<path d="M 700 240 L 520 240" fill="none" stroke="black" stroke-width="2" />
<!-- LAST VERTICAL: -->
<!-- LINE: -->
<path d="M 520 240 L 520 135" fill="none" stroke="black" stroke-width="2" />
<!-- xa-xa-xa-->
<path d="M 520 135 L 535 120" fill="none" stroke="black" stroke-width="2" />
<!-- ARROS LEFT -->
<path d="M 520 135 L 510 155" fill="none" stroke="black" stroke-width="2" />
<!-- ARROW RIGHT -->
<path d="M 520 135 L 530 155" fill="none" stroke="black" stroke-width="2" />
<text x = "718" y = "245" font-family = "Arial" font-size = "16"> ;  </text>
<text x = "336" y = "343" font-family = "Arial" font-size = "16"> &lt; Оператор &gt;  </text>
<text x = "204" y = "345" font-family = "Arial" font-size = "16"> Else  </text>
<!-- LINE: -->
<path d="M 240 340 L 320 340" fill="none" stroke="black" stroke-width="2" />
<!-- ARROS LEFT -->
<path d="M 320 340 L 300 330" fill="none" stroke="black" stroke-width="2" />
<!-- ARROW RIGHT -->
<path d="M 320 340 L 300 350" fill="none" stroke="black" stroke-width="2" />
<!-- LINE: -->
<path d="M 460 340 L 700 340" fill="none" stroke="black" stroke-width="2" />
<!-- ARROS LEFT -->
<path d="M 700 340 L 680 330" fill="none" stroke="black" stroke-width="2" />
<!-- ARROW RIGHT -->
<path d="M 700 340 L 680 350" fill="none" stroke="black" stroke-width="2" />
<!-- BOUND LINE -->
<path d="M 105 340 L 120 355" fill="none" stroke="black" stroke-width="2" />
<!-- Line After Bound -->
<path d="M 120 355 L 120 400" fill="none" stroke="black" stroke-width="2" />
<!-- LINE: -->
<path d="M 120 400 L 500 400" fill="none" stroke="black" stroke-width="2" />
<!-- ARROS LEFT -->
<path d="M 320 400 L 300 390" fill="none" stroke="black" stroke-width="2" />
<!-- ARROW RIGHT -->
<path d="M 320 400 L 300 410" fill="none" stroke="black" stroke-width="2" />
<!-- LAST VERTICAL: -->
<!-- LINE: -->
<path d="M 500 400 L 500 355" fill="none" stroke="black" stroke-width="2" />
<!-- xa-xa-xa-->
<path d="M 500 355 L 515 340" fill="none" stroke="black" stroke-width="2" />
<!-- ARROS LEFT -->
<path d="M 500 355 L 490 375" fill="none" stroke="black" stroke-width="2" />
<!-- ARROW RIGHT -->
<path d="M 500 355 L 510 375" fill="none" stroke="black" stroke-width="2" />
<text x = "725" y = "343" font-family = "Arial" font-size = "16"> End  </text>
<!-- LINE: -->
<path d="M 760 340 L 1020 340" fill="none" stroke="black" stroke-width="2" />
<!-- ARROS LEFT -->
<path d="M 1020 340 L 1000 330" fill="none" stroke="black" stroke-width="2" />
<!-- ARROW RIGHT -->
<path d="M 1020 340 L 1000 350" fill="none" stroke="black" stroke-width="2" />
<!-- BOUND LINE -->
<path d="M 525 340 L 540 355" fill="none" stroke="black" stroke-width="2" />
<!-- Line After Bound -->
<path d="M 540 355 L 540 400" fill="none" stroke="black" stroke-width="2" />
<!-- LINE: -->
<path d="M 540 400 L 580 400" fill="none" stroke="black" stroke-width="2" />
<!-- ARROS LEFT -->
<path d="M 580 400 L 560 390" fill="none" stroke="black" stroke-width="2" />
<!-- ARROW RIGHT -->
<path d="M 580 400 L 560 410" fill="none" stroke="black" stroke-width="2" />
<!-- LINE: -->
<path d="M 620 400 L 660 400" fill="none" stroke="black" stroke-width="2" />
<!-- LAST VERTICAL: -->
<!-- LINE: -->
<path d="M 660 400 L 660 355" fill="none" stroke="black" stroke-width="2" />
<!-- xa-xa-xa-->
<path d="M 660 355 L 675 340" fill="none" stroke="black" stroke-width="2" />
<!-- ARROS LEFT -->
<path d="M 660 355 L 650 375" fill="none" stroke="black" stroke-width="2" />
<!-- ARROW RIGHT -->
<path d="M 660 355 L 670 375" fill="none" stroke="black" stroke-width="2" />
<text x = "598" y = "405" font-family = "Arial" font-size = "16"> ;  </text>
</svg>
