<?xml version="1.0" standalone="no"?>
<!DOCTYPE svg PUBLIC "-//W3C//DTD SVG 1.1//EN"
"http://www.w3.org/Graphics/SVG/1.1/DTD/svg11.dtd">
<svg width="1106" height="400
" viewBox="0 0 1106 400"
xmlns="http://www.w3.org/2000/svg" version="1.1">
<title>Syntax Diagram Project</title>
<!-- LINE: -->
<path d="M 40 140 L 180 140" fill="none" stroke="black" stroke-width="2" />
<!-- ARROS LEFT -->
<path d="M 180 140 L 160 130" fill="none" stroke="black" stroke-width="2" />
<!-- ARROW RIGHT -->
<path d="M 180 140 L 160 150" fill="none" stroke="black" stroke-width="2" />
<text x = "196" y = "142" font-family = "Arial" font-size = "16"> &lt; Буква &gt;  </text>
<!-- LINE: -->
<path d="M 280 140 L 560 140" fill="none" stroke="black" stroke-width="2" />
<!-- ARROS LEFT -->
<path d="M 560 140 L 540 130" fill="none" stroke="black" stroke-width="2" />
<!-- ARROW RIGHT -->
<path d="M 560 140 L 540 150" fill="none" stroke="black" stroke-width="2" />
<!-- BOUND LINE -->
<path d="M 65 140 L 80 155" fill="none" stroke="black" stroke-width="2" />
<!-- Line After Bound -->
<path d="M 80 155 L 80 200" fill="none" stroke="black" stroke-width="2" />
<!-- LINE: -->
<path d="M 80 200 L 120 200" fill="none" stroke="black" stroke-width="2" />
<!-- ARROS LEFT -->
<path d="M 120 200 L 100 190" fill="none" stroke="black" stroke-width="2" />
<!-- ARROW RIGHT -->
<path d="M 120 200 L 100 210" fill="none" stroke="black" stroke-width="2" />
<text x = "160" y = "202" font-family = "Arial" font-size = "16"> &lt; Знак_подчеркивания &gt;  </text>
<!-- LINE: -->
<path d="M 340 200 L 380 200" fill="none" stroke="black" stroke-width="2" />
<!-- LAST VERTICAL: -->
<!-- LINE: -->
<path d="M 380 200 L 380 155" fill="none" stroke="black" stroke-width="2" />
<!-- Incoming Line -->
<path d="M 380 155 L 395 140" fill="none" stroke="black" stroke-width="2" />
<!-- ARROS LEFT -->
<path d="M 380 155 L 370 175" fill="none" stroke="black" stroke-width="2" />
<!-- ARROW RIGHT -->
<path d="M 380 155 L 390 175" fill="none" stroke="black" stroke-width="2" />
<text x = "573" y = "144" font-family = "Arial" font-size = "16"> &lt; Цифра &gt;  </text>
<!-- BOUND LINE -->
<path d="M 445 140 L 460 125" fill="none" stroke="black" stroke-width="2" />
<!-- Line After Bound -->
<path d="M 460 125 L 460 60" fill="none" stroke="black" stroke-width="2" />
<!-- LINE: -->
<path d="M 460 60 L 840 60" fill="none" stroke="black" stroke-width="2" />
<!-- ARROS LEFT -->
<path d="M 840 60 L 820 50" fill="none" stroke="black" stroke-width="2" />
<!-- ARROW RIGHT -->
<path d="M 840 60 L 820 70" fill="none" stroke="black" stroke-width="2" />
<!-- LINE: -->
<path d="M 660 140 L 800 140" fill="none" stroke="black" stroke-width="2" />
<!-- LINE: -->
<path d="M 800 140 L 800 340" fill="none" stroke="black" stroke-width="2" />
<!-- LINE: -->
<path d="M 800 340 L 480 340" fill="none" stroke="black" stroke-width="2" />
<!-- LAST VERTICAL: -->
<!-- LINE: -->
<path d="M 480 340 L 480 155" fill="none" stroke="black" stroke-width="2" />
<!-- Incoming Line -->
<path d="M 480 155 L 495 140" fill="none" stroke="black" stroke-width="2" />
<!-- ARROS LEFT -->
<path d="M 480 155 L 470 175" fill="none" stroke="black" stroke-width="2" />
<!-- ARROW RIGHT -->
<path d="M 480 155 L 490 175" fill="none" stroke="black" stroke-width="2" />
<!-- LINE: -->
<path d="M 660 140 L 800 140" fill="none" stroke="black" stroke-width="2" />
<!-- ARROS LEFT -->
<path d="M 800 140 L 780 130" fill="none" stroke="black" stroke-width="2" />
<!-- ARROW RIGHT -->
<path d="M 800 140 L 780 150" fill="none" stroke="black" stroke-width="2" />
<!-- LINE: -->
<path d="M 800 340 L 640 340" fill="none" stroke="black" stroke-width="2" />
<!-- ARROS LEFT -->
<path d="M 640 340 L 660 330" fill="none" stroke="black" stroke-width="2" />
<!-- ARROW RIGHT -->
<path d="M 640 340 L 660 350" fill="none" stroke="black" stroke-width="2" />
<!-- LINE: -->
<path d="M 540 600 L 540 600" fill="none" stroke="black" stroke-width="2" />
<!-- LINE: -->
<path d="M 540 600 L 540 600" fill="none" stroke="black" stroke-width="2" />
<!-- LAST VERTICAL: -->
<!-- LINE: -->
<path d="M 540 600 L 540 615" fill="none" stroke="black" stroke-width="2" />
<!-- ARROS LEFT -->
<path d="M 540 615 L 530 595" fill="none" stroke="black" stroke-width="2" />
<!-- ARROW RIGHT -->
<path d="M 540 615 L 550 595" fill="none" stroke="black" stroke-width="2" />
<!-- BOUND LINE -->
<path d="M 505 140 L 520 155" fill="none" stroke="black" stroke-width="2" />
<!-- Line After Bound -->
<path d="M 520 155 L 520 280" fill="none" stroke="black" stroke-width="2" />
<!-- LINE: -->
<path d="M 520 280 L 560 280" fill="none" stroke="black" stroke-width="2" />
<!-- ARROS LEFT -->
<path d="M 560 280 L 540 270" fill="none" stroke="black" stroke-width="2" />
<!-- ARROW RIGHT -->
<path d="M 560 280 L 540 290" fill="none" stroke="black" stroke-width="2" />
<text x = "584" y = "282" font-family = "Arial" font-size = "16"> &lt; Знак_подчеркивания &gt;  </text>
<!-- Additional line: -->
<path d="M 760 280 L 785 280" fill="none" stroke="black" stroke-width="2" />
<!-- ARROS LEFT -->
<path d="M 785 280 L 765 270" fill="none" stroke="black" stroke-width="2" />
<!-- ARROW RIGHT -->
<path d="M 785 280 L 765 290" fill="none" stroke="black" stroke-width="2" />
<!-- Additional line Intersect 2: -->
<path d="M 800 295 L 785 280" fill="none" stroke="black" stroke-width="2" />
<!-- Additional line Intersection: -->
<path d="M 520 205 L 535 220" fill="none" stroke="black" stroke-width="2" />
<!-- LINE: -->
<path d="M 535 220 L 600 220" fill="none" stroke="black" stroke-width="2" />
<!-- ARROS LEFT -->
<path d="M 600 220 L 580 210" fill="none" stroke="black" stroke-width="2" />
<!-- ARROW RIGHT -->
<path d="M 600 220 L 580 230" fill="none" stroke="black" stroke-width="2" />
<text x = "611" y = "224" font-family = "Arial" font-size = "16"> &lt; Буква &gt;  </text>
<!-- Additional line: -->
<path d="M 700 220 L 785 220" fill="none" stroke="black" stroke-width="2" />
<!-- ARROS LEFT -->
<path d="M 785 220 L 765 210" fill="none" stroke="black" stroke-width="2" />
<!-- ARROW RIGHT -->
<path d="M 785 220 L 765 230" fill="none" stroke="black" stroke-width="2" />
<!-- Additional line Intersect 2: -->
<path d="M 800 235 L 785 220" fill="none" stroke="black" stroke-width="2" />
<text x = "74" y = "71" font-family = "Arial" font-size = "16"> &lt; Идентификатор &gt; ::=   </text>
</svg>
