<?xml version="1.0" standalone="no"?>
<!DOCTYPE svg PUBLIC "-//W3C//DTD SVG 1.1//EN"
"http://www.w3.org/Graphics/SVG/1.1/DTD/svg11.dtd">
<svg width="1106" height="400
" viewBox="0 0 1106 400"
xmlns="http://www.w3.org/2000/svg" version="1.1">
<!-- ################################################################ -->
<!-- This Syntax Diagram generated by BrakhMen Syntax Diagrams Editor -->
<!-- Site : http://brakh.men -->
<!-- ################################################################ -->
<title>Syntax Diagram Project</title>
<desc>Create by BrakhMen.info</desc>
<!-- START DRAWING LINE №1 -->
<!-- LASTARROW -->
<!-- ARROW -->
<path d="M 163 127 L 183 137 L 163 147" fill="none" stroke="black" stroke-width="2" />
<!-- LINE WITH 2 POINTS: -->
<path d="M 40 137 L 183 137" fill="none" stroke="black" stroke-width="2" />
<!-- END DRAWING LINE №1 -->
<text text-anchor="middle" font-family = "Tahoma" font-size = "16" x="232" y="141">&lt; Буква &gt;</text>
<!-- START DRAWING LINE №2 -->
<!-- LASTARROW -->
<!-- ARROW -->
<path d="M 542 127 L 562 137 L 542 147" fill="none" stroke="black" stroke-width="2" />
<!-- LINE WITH 2 POINTS: -->
<path d="M 281 137 L 562 137" fill="none" stroke="black" stroke-width="2" />
<!-- END DRAWING LINE №2 -->
<!-- START DRAWING LINE №3 -->
<!-- BOUND LINE -->
<path d="M 65 137 L 80 152" fill="none" stroke="black" stroke-width="2" />
<!-- LASTARROW -->
<!-- ARROW -->
<path d="M 112 187 L 132 197 L 112 207" fill="none" stroke="black" stroke-width="2" />
<!-- LINE WITH 3 POINTS: -->
<path d="M 80 152 L 80 197 L 132 197" fill="none" stroke="black" stroke-width="2" />
<!-- END DRAWING LINE №3 -->
<text text-anchor="middle" font-family = "Tahoma" font-size = "16" x="234" y="201.5">&lt; Знак_подчеркивания &gt;</text>
<!-- START DRAWING LINE №4 -->
<!-- LAST VERTICAL: -->
<!-- Incoming Line -->
<path d="M 380 152 L 395 137" fill="none" stroke="black" stroke-width="2" />
<!-- VERTICAL ARROW -->
<path d="M 370 172 L 380 152 L 390 172" fill="none" stroke="black" stroke-width="2" />
<!-- LINE WITH 3 POINTS: -->
<path d="M 336 197 L 380 197 L 380 152" fill="none" stroke="black" stroke-width="2" />
<!-- END DRAWING LINE №4 -->
<text text-anchor="middle" font-family = "Tahoma" font-size = "16" x="611" y="141">&lt; Цифра &gt;</text>
<!-- START DRAWING LINE №5 -->
<!-- BOUND LINE -->
<path d="M 445 137 L 460 122" fill="none" stroke="black" stroke-width="2" />
<!-- LASTARROW -->
<!-- ARROW -->
<path d="M 820 50 L 840 60 L 820 70" fill="none" stroke="black" stroke-width="2" />
<!-- LINE WITH 3 POINTS: -->
<path d="M 460 122 L 460 60 L 840 60" fill="none" stroke="black" stroke-width="2" />
<!-- END DRAWING LINE №5 -->
<!-- START DRAWING LINE №6 -->
<!-- ARROW -->
<path d="M 661 327 L 641 337 L 661 347" fill="none" stroke="black" stroke-width="2" />
<!-- LAST VERTICAL: -->
<!-- Incoming Line -->
<path d="M 464 152 L 479 137" fill="none" stroke="black" stroke-width="2" />
<!-- VERTICAL ARROW -->
<path d="M 454 172 L 464 152 L 474 172" fill="none" stroke="black" stroke-width="2" />
<!-- LINE WITH 5 POINTS: -->
<path d="M 660 137 L 798 137 L 798 337 L 464 337 L 464 152" fill="none" stroke="black" stroke-width="2" />
<!-- END DRAWING LINE №6 -->
<!-- START DRAWING LINE №7 -->
<!-- LASTARROW -->
<!-- ARROW -->
<path d="M 778 127 L 798 137 L 778 147" fill="none" stroke="black" stroke-width="2" />
<!-- LINE WITH 2 POINTS: -->
<path d="M 660 137 L 798 137" fill="none" stroke="black" stroke-width="2" />
<!-- END DRAWING LINE №7 -->
<!-- START DRAWING LINE №8 -->
<!-- LAST VERTICAL: -->
<!-- LASTARROW -->
<!-- VERTICAL ARROW -->
<path d="M 530 595 L 540 615 L 550 595" fill="none" stroke="black" stroke-width="2" />
<!-- LINE WITH 4 POINTS: -->
<path d="M 540 600 L 540 600 L 540 600 L 540 615" fill="none" stroke="black" stroke-width="2" />
<!-- END DRAWING LINE №8 -->
<!-- START DRAWING LINE №9 -->
<!-- BOUND LINE -->
<path d="M 505 137 L 520 152" fill="none" stroke="black" stroke-width="2" />
<!-- LASTARROW -->
<!-- ARROW -->
<path d="M 536 267 L 556 277 L 536 287" fill="none" stroke="black" stroke-width="2" />
<!-- LINE WITH 3 POINTS: -->
<path d="M 520 152 L 520 277 L 556 277" fill="none" stroke="black" stroke-width="2" />
<!-- END DRAWING LINE №9 -->
<text text-anchor="middle" font-family = "Tahoma" font-size = "16" x="658" y="281.5">&lt; Знак_подчеркивания &gt;</text>
<!-- START DRAWING LINE №10 -->
<!-- Additional line: -->
<!-- ARROW -->
<path d="M 763 267 L 783 277 L 763 287" fill="none" stroke="black" stroke-width="2" />
<!-- Additional line Intersect 2: -->
<path d="M 798 292 L 783 277" fill="none" stroke="black" stroke-width="2" />
<!-- LINE WITH 2 POINTS: -->
<path d="M 760 277 L 783 277" fill="none" stroke="black" stroke-width="2" />
<!-- END DRAWING LINE №10 -->
<!-- START DRAWING LINE №11 -->
<!-- Additional line Intersection: -->
<path d="M 520 204 L 535 219" fill="none" stroke="black" stroke-width="2" />
<!-- LASTARROW -->
<!-- ARROW -->
<path d="M 578 209 L 598 219 L 578 229" fill="none" stroke="black" stroke-width="2" />
<!-- LINE WITH 2 POINTS: -->
<path d="M 535 219 L 598 219" fill="none" stroke="black" stroke-width="2" />
<!-- END DRAWING LINE №11 -->
<text text-anchor="middle" font-family = "Tahoma" font-size = "16" x="647" y="223">&lt; Буква &gt;</text>
<!-- START DRAWING LINE №12 -->
<!-- Additional line: -->
<!-- ARROW -->
<path d="M 763 209 L 783 219 L 763 229" fill="none" stroke="black" stroke-width="2" />
<!-- Additional line Intersect 2: -->
<path d="M 798 234 L 783 219" fill="none" stroke="black" stroke-width="2" />
<!-- LINE WITH 2 POINTS: -->
<path d="M 696 219 L 783 219" fill="none" stroke="black" stroke-width="2" />
<!-- END DRAWING LINE №12 -->
<text text-anchor="middle" font-family = "Tahoma" font-size = "16" x="146" y="70">&lt; Идентификатор &gt; ::= </text>
</svg>
