<?xml version="1.0" standalone="no"?>
<!DOCTYPE svg PUBLIC "-//W3C//DTD SVG 1.1//EN"
"http://www.w3.org/Graphics/SVG/1.1/DTD/svg11.dtd">
<svg width="1182" height="451
" viewBox="0 0 1182 451"
xmlns="http://www.w3.org/2000/svg" version="1.1">
<!-- ################################################################ -->
<!-- This Syntax Diagram generated by BrakhMen Syntax Diagrams Editor -->
<!-- Site : http://brakh.men -->
<!-- ################################################################ -->
<title>Syntax Diagram Project</title>
<desc>Create by BrakhMen.info</desc>
<text text-anchor="middle" font-family = "Tahoma" font-size = "16" x="166" y="61">&lt; Интерфейсный_раздел &gt; ::= </text>
<text text-anchor="middle" font-family = "Tahoma" font-size = "16" x="181" y="120">Interface</text>
<!-- LASTARROW -->
<!-- ARROW -->
<path d="M 120 106 L 140 116 L 120 126" fill="none" stroke="black" stroke-width="2" />
<!-- LINE WITH 2 POINTS: -->
<path d="M 40 116 L 140 116" fill="none" stroke="black" stroke-width="2" />
<!-- LASTARROW -->
<!-- ARROW -->
<path d="M 1109 106 L 1129 116 L 1109 126" fill="none" stroke="black" stroke-width="2" />
<!-- LINE WITH 2 POINTS: -->
<path d="M 222 116 L 1129 116" fill="none" stroke="black" stroke-width="2" />
<text text-anchor="middle" font-family = "Tahoma" font-size = "16" x="387" y="168">&lt; Предложение_Uses &gt;</text>
<!-- BOUND LINE -->
<path d="M 238 116 L 253 131" fill="none" stroke="black" stroke-width="2" />
<!-- LASTARROW -->
<!-- ARROW -->
<path d="M 269 154 L 289 164 L 269 174" fill="none" stroke="black" stroke-width="2" />
<!-- LINE WITH 3 POINTS: -->
<path d="M 253 131 L 253 164 L 289 164" fill="none" stroke="black" stroke-width="2" />
<!-- LAST VERTICAL: -->
<!-- Incoming Line -->
<path d="M 520 131 L 535 116" fill="none" stroke="black" stroke-width="2" />
<!-- VERTICAL ARROW -->
<path d="M 510 151 L 520 131 L 530 151" fill="none" stroke="black" stroke-width="2" />
<!-- LINE WITH 3 POINTS: -->
<path d="M 485 164 L 520 164 L 520 131" fill="none" stroke="black" stroke-width="2" />
<text text-anchor="middle" font-family = "Tahoma" font-size = "16" x="788" y="168">&lt; Раздел_констант &gt;</text>
<text text-anchor="middle" font-family = "Tahoma" font-size = "16" x="782" y="222">&lt; Раздел_типов &gt;</text>
<text text-anchor="middle" font-family = "Tahoma" font-size = "16" x="790" y="281">Раздел_переменных</text>
<text text-anchor="middle" font-family = "Tahoma" font-size = "16" x="805" y="333">&lt; Раздел_заголовков_процедур_и_функций &gt;</text>
<!-- BOUND LINE -->
<path d="M 575 116 L 590 131" fill="none" stroke="black" stroke-width="2" />
<!-- LASTARROW -->
<!-- ARROW -->
<path d="M 603 319 L 623 329 L 603 339" fill="none" stroke="black" stroke-width="2" />
<!-- LINE WITH 3 POINTS: -->
<path d="M 590 131 L 590 329 L 623 329" fill="none" stroke="black" stroke-width="2" />
<!-- Additional line Intersection: -->
<path d="M 590 149 L 605 164" fill="none" stroke="black" stroke-width="2" />
<!-- LASTARROW -->
<!-- ARROW -->
<path d="M 679 154 L 699 164 L 679 174" fill="none" stroke="black" stroke-width="2" />
<!-- LINE WITH 2 POINTS: -->
<path d="M 605 164 L 699 164" fill="none" stroke="black" stroke-width="2" />
<!-- Additional line Intersection: -->
<path d="M 590 203 L 605 218" fill="none" stroke="black" stroke-width="2" />
<!-- LASTARROW -->
<!-- ARROW -->
<path d="M 684 208 L 704 218 L 684 228" fill="none" stroke="black" stroke-width="2" />
<!-- LINE WITH 2 POINTS: -->
<path d="M 605 218 L 704 218" fill="none" stroke="black" stroke-width="2" />
<!-- LAST VERTICAL: -->
<!-- Incoming Line -->
<path d="M 1020 131 L 1035 116" fill="none" stroke="black" stroke-width="2" />
<!-- VERTICAL ARROW -->
<path d="M 1010 151 L 1020 131 L 1030 151" fill="none" stroke="black" stroke-width="2" />
<!-- LINE WITH 3 POINTS: -->
<path d="M 987 329 L 1020 329 L 1020 131" fill="none" stroke="black" stroke-width="2" />
<!-- Additional line: -->
<!-- ARROW -->
<path d="M 985 154 L 1005 164 L 985 174" fill="none" stroke="black" stroke-width="2" />
<!-- Additional line Intersect 2: -->
<path d="M 1020 179 L 1005 164" fill="none" stroke="black" stroke-width="2" />
<!-- LINE WITH 2 POINTS: -->
<path d="M 877 164 L 1005 164" fill="none" stroke="black" stroke-width="2" />
<!-- Additional line: -->
<!-- ARROW -->
<path d="M 985 208 L 1005 218 L 985 228" fill="none" stroke="black" stroke-width="2" />
<!-- Additional line Intersect 2: -->
<path d="M 1020 233 L 1005 218" fill="none" stroke="black" stroke-width="2" />
<!-- LINE WITH 2 POINTS: -->
<path d="M 860 218 L 1005 218" fill="none" stroke="black" stroke-width="2" />
<!-- Additional line Intersection: -->
<path d="M 590 262 L 605 277" fill="none" stroke="black" stroke-width="2" />
<!-- LASTARROW -->
<!-- ARROW -->
<path d="M 686 267 L 706 277 L 686 287" fill="none" stroke="black" stroke-width="2" />
<!-- LINE WITH 2 POINTS: -->
<path d="M 605 277 L 706 277" fill="none" stroke="black" stroke-width="2" />
<!-- Additional line: -->
<!-- ARROW -->
<path d="M 985 267 L 1005 277 L 985 287" fill="none" stroke="black" stroke-width="2" />
<!-- Additional line Intersect 2: -->
<path d="M 1020 292 L 1005 277" fill="none" stroke="black" stroke-width="2" />
<!-- LINE WITH 2 POINTS: -->
<path d="M 874 277 L 1005 277" fill="none" stroke="black" stroke-width="2" />
<!-- BOUND LINE -->
<path d="M 1055 116 L 1070 131" fill="none" stroke="black" stroke-width="2" />
<!-- ARROW -->
<path d="M 838 368 L 818 378 L 838 388" fill="none" stroke="black" stroke-width="2" />
<!-- LAST VERTICAL: -->
<!-- Incoming Line -->
<path d="M 546 131 L 561 116" fill="none" stroke="black" stroke-width="2" />
<!-- VERTICAL ARROW -->
<path d="M 536 151 L 546 131 L 556 151" fill="none" stroke="black" stroke-width="2" />
<!-- LINE WITH 4 POINTS: -->
<path d="M 1070 131 L 1070 378 L 546 378 L 546 131" fill="none" stroke="black" stroke-width="2" />
</svg>
