<?xml version="1.0" standalone="no"?>
<!DOCTYPE svg PUBLIC "-//W3C//DTD SVG 1.1//EN"
"http://www.w3.org/Graphics/SVG/1.1/DTD/svg11.dtd">
<svg width="1000" height="410
" viewBox="0 0 1000 410"
xmlns="http://www.w3.org/2000/svg" version="1.1">
<title>Syntax Diagram Project</title>
<text x = "130" y = "67" font-family = "Arial" font-size = "16"> &lt; Конструктор_множества &gt;  </text>
<!-- LINE: -->
<path d="M 20 140 L 71 140" fill="none" stroke="black" stroke-width="2" />
<!-- ARROS LEFT -->
<path d="M 71 140 L 51 130" fill="none" stroke="black" stroke-width="2" />
<!-- ARROW RIGHT -->
<path d="M 71 140 L 51 150" fill="none" stroke="black" stroke-width="2" />
<text x = "86" y = "144" font-family = "Arial" font-size = "16"> [  </text>
<!-- LINE: -->
<path d="M 100 140 L 195 140" fill="none" stroke="black" stroke-width="2" />
<!-- ARROS LEFT -->
<path d="M 195 140 L 175 130" fill="none" stroke="black" stroke-width="2" />
<!-- ARROW RIGHT -->
<path d="M 195 140 L 175 150" fill="none" stroke="black" stroke-width="2" />
<text x = "521" y = "202" font-family = "Arial" font-size = "16"> &lt; Выражение &gt;  </text>
<!-- LINE: -->
<path d="M 340 141 L 844 141" fill="none" stroke="black" stroke-width="2" />
<!-- ARROS LEFT -->
<path d="M 844 141 L 824 131" fill="none" stroke="black" stroke-width="2" />
<!-- ARROW RIGHT -->
<path d="M 844 141 L 824 151" fill="none" stroke="black" stroke-width="2" />
<!-- BOUND LINE -->
<path d="M 356 141 L 371 156" fill="none" stroke="black" stroke-width="2" />
<!-- Line After Bound -->
<path d="M 371 156 L 371 200" fill="none" stroke="black" stroke-width="2" />
<!-- LINE: -->
<path d="M 371 200 L 411 200" fill="none" stroke="black" stroke-width="2" />
<!-- ARROS LEFT -->
<path d="M 411 200 L 391 190" fill="none" stroke="black" stroke-width="2" />
<!-- ARROW RIGHT -->
<path d="M 411 200 L 391 210" fill="none" stroke="black" stroke-width="2" />
<text x = "426" y = "200" font-family = "Arial" font-size = "16"> ..  </text>
<!-- LINE: -->
<path d="M 460 200 L 500 200" fill="none" stroke="black" stroke-width="2" />
<!-- ARROS LEFT -->
<path d="M 500 200 L 480 190" fill="none" stroke="black" stroke-width="2" />
<!-- ARROW RIGHT -->
<path d="M 500 200 L 480 210" fill="none" stroke="black" stroke-width="2" />
<text x = "219" y = "143" font-family = "Arial" font-size = "16"> &lt; Выражения &gt;  </text>
<!-- LINE: -->
<path d="M 640 202 L 697 202" fill="none" stroke="black" stroke-width="2" />
<!-- LAST VERTICAL: -->
<!-- LINE: -->
<path d="M 697 202 L 697 156" fill="none" stroke="black" stroke-width="2" />
<!-- Incoming Line -->
<path d="M 697 156 L 712 141" fill="none" stroke="black" stroke-width="2" />
<!-- ARROS LEFT -->
<path d="M 697 156 L 687 176" fill="none" stroke="black" stroke-width="2" />
<!-- ARROW RIGHT -->
<path d="M 697 156 L 707 176" fill="none" stroke="black" stroke-width="2" />
<!-- LINE: -->
<path d="M 560 259 L 148 259" fill="none" stroke="black" stroke-width="2" />
<!-- LAST VERTICAL: -->
<!-- LINE: -->
<path d="M 148 259 L 148 155" fill="none" stroke="black" stroke-width="2" />
<!-- Incoming Line -->
<path d="M 148 155 L 163 140" fill="none" stroke="black" stroke-width="2" />
<!-- ARROS LEFT -->
<path d="M 148 155 L 138 175" fill="none" stroke="black" stroke-width="2" />
<!-- ARROW RIGHT -->
<path d="M 148 155 L 158 175" fill="none" stroke="black" stroke-width="2" />
<text x = "579" y = "263" font-family = "Arial" font-size = "16"> ,  </text>
<!-- BOUND LINE -->
<path d="M 105 140 L 120 155" fill="none" stroke="black" stroke-width="2" />
<!-- Line After Bound -->
<path d="M 120 155 L 120 280" fill="none" stroke="black" stroke-width="2" />
<!-- LINE: -->
<path d="M 120 280 L 120 340" fill="none" stroke="black" stroke-width="2" />
<!-- LINE: -->
<path d="M 120 340 L 760 340" fill="none" stroke="black" stroke-width="2" />
<!-- LINE: -->
<path d="M 760 340 L 760 340" fill="none" stroke="black" stroke-width="2" />
<!-- LINE: -->
<path d="M 760 340 L 780 340" fill="none" stroke="black" stroke-width="2" />
<!-- ARROS LEFT -->
<path d="M 780 340 L 760 330" fill="none" stroke="black" stroke-width="2" />
<!-- ARROW RIGHT -->
<path d="M 780 340 L 760 350" fill="none" stroke="black" stroke-width="2" />
<!-- LAST VERTICAL: -->
<!-- LINE: -->
<path d="M 780 340 L 780 156" fill="none" stroke="black" stroke-width="2" />
<!-- Incoming Line -->
<path d="M 780 156 L 795 141" fill="none" stroke="black" stroke-width="2" />
<!-- ARROS LEFT -->
<path d="M 780 156 L 770 176" fill="none" stroke="black" stroke-width="2" />
<!-- ARROW RIGHT -->
<path d="M 780 156 L 790 176" fill="none" stroke="black" stroke-width="2" />
<text x = "854" y = "144" font-family = "Arial" font-size = "16"> ]  </text>
<!-- LINE: -->
<path d="M 880 141 L 956 141" fill="none" stroke="black" stroke-width="2" />
<!-- ARROS LEFT -->
<path d="M 956 141 L 936 131" fill="none" stroke="black" stroke-width="2" />
<!-- ARROW RIGHT -->
<path d="M 956 141 L 936 151" fill="none" stroke="black" stroke-width="2" />
<!-- BOUND LINE -->
<path d="M 725 141 L 740 156" fill="none" stroke="black" stroke-width="2" />
<!-- Line After Bound -->
<path d="M 740 156 L 740 260" fill="none" stroke="black" stroke-width="2" />
<!-- LINE: -->
<path d="M 740 260 L 600 260" fill="none" stroke="black" stroke-width="2" />
<!-- ARROS LEFT -->
<path d="M 600 260 L 620 250" fill="none" stroke="black" stroke-width="2" />
<!-- ARROW RIGHT -->
<path d="M 600 260 L 620 270" fill="none" stroke="black" stroke-width="2" />
</svg>
