<?xml version="1.0" standalone="no"?>
<!DOCTYPE svg PUBLIC "-//W3C//DTD SVG 1.1//EN"
"http://www.w3.org/Graphics/SVG/1.1/DTD/svg11.dtd">
<svg width="1149" height="519
" viewBox="0 0 1149 519"
xmlns="http://www.w3.org/2000/svg" version="1.1">
<title>Syntax Diagram Project</title>
<text x = "127" y = "67" font-family = "Arial" font-size = "16"> &lt; Конструктор_множества &gt;  </text>
<!-- LINE: -->
<path d="M 20 140 L 71 140" fill="none" stroke="black" stroke-width="2" />
<!-- ARROS LEFT -->
<path d="M 71 140 L 41 130" fill="none" stroke="black" stroke-width="2" />
<!-- ARROW RIGHT -->
<path d="M 71 140 L 41 150" fill="none" stroke="black" stroke-width="2" />
<text x = "86" y = "144" font-family = "Arial" font-size = "16"> [  </text>
<!-- LINE: -->
<path d="M 100 140 L 195 140" fill="none" stroke="black" stroke-width="2" />
<!-- ARROS LEFT -->
<path d="M 195 140 L 165 130" fill="none" stroke="black" stroke-width="2" />
<!-- ARROW RIGHT -->
<path d="M 195 140 L 165 150" fill="none" stroke="black" stroke-width="2" />
<text x = "516" y = "202" font-family = "Arial" font-size = "16"> &lt; Выражение &gt;  </text>
<!-- LINE: -->
<path d="M 340 141 L 844 141" fill="none" stroke="black" stroke-width="2" />
<!-- ARROS LEFT -->
<path d="M 844 141 L 814 131" fill="none" stroke="black" stroke-width="2" />
<!-- ARROW RIGHT -->
<path d="M 844 141 L 814 151" fill="none" stroke="black" stroke-width="2" />
<!-- BOUND LINE -->
<path d="M 356 140 L 371 155" fill="none" stroke="black" stroke-width="2" />
<!-- Line After Bound -->
<path d="M 371 155 L 371 200" fill="none" stroke="black" stroke-width="2" />
<!-- LINE: -->
<path d="M 371 200 L 411 200" fill="none" stroke="black" stroke-width="2" />
<!-- ARROS LEFT -->
<path d="M 411 200 L 381 190" fill="none" stroke="black" stroke-width="2" />
<!-- ARROW RIGHT -->
<path d="M 411 200 L 381 210" fill="none" stroke="black" stroke-width="2" />
<text x = "426" y = "200" font-family = "Arial" font-size = "16"> ..  </text>
<!-- LINE: -->
<path d="M 460 200 L 500 200" fill="none" stroke="black" stroke-width="2" />
<!-- ARROS LEFT -->
<path d="M 500 200 L 470 190" fill="none" stroke="black" stroke-width="2" />
<!-- ARROW RIGHT -->
<path d="M 500 200 L 470 210" fill="none" stroke="black" stroke-width="2" />
<text x = "213" y = "143" font-family = "Arial" font-size = "16"> &lt; Выражения &gt;  </text>
<!-- LINE: -->
<path d="M 640 200 L 700 200" fill="none" stroke="black" stroke-width="2" />
<!-- LAST VERTICAL: -->
<!-- LINE: -->
<path d="M 700 200 L 700 155" fill="none" stroke="black" stroke-width="2" />
<!-- Incoming Line -->
<path d="M 700 155 L 715 140" fill="none" stroke="black" stroke-width="2" />
<!-- ARROS LEFT -->
<path d="M 700 155 L 690 185" fill="none" stroke="black" stroke-width="2" />
<!-- ARROW RIGHT -->
<path d="M 700 155 L 710 185" fill="none" stroke="black" stroke-width="2" />
<!-- BOUND LINE -->
<path d="M 725 140 L 740 155" fill="none" stroke="black" stroke-width="2" />
<!-- Line After Bound -->
<path d="M 740 155 L 740 220" fill="none" stroke="black" stroke-width="2" />
<!-- LINE: -->
<path d="M 740 220 L 740 260" fill="none" stroke="black" stroke-width="2" />
<!-- LINE: -->
<path d="M 740 260 L 600 260" fill="none" stroke="black" stroke-width="2" />
<!-- ARROS LEFT -->
<path d="M 600 260 L 630 250" fill="none" stroke="black" stroke-width="2" />
<!-- ARROW RIGHT -->
<path d="M 600 260 L 630 270" fill="none" stroke="black" stroke-width="2" />
<!-- LINE: -->
<path d="M 560 259 L 148 259" fill="none" stroke="black" stroke-width="2" />
<!-- LAST VERTICAL: -->
<!-- LINE: -->
<path d="M 148 259 L 148 155" fill="none" stroke="black" stroke-width="2" />
<!-- Incoming Line -->
<path d="M 148 155 L 163 140" fill="none" stroke="black" stroke-width="2" />
<!-- ARROS LEFT -->
<path d="M 148 155 L 138 185" fill="none" stroke="black" stroke-width="2" />
<!-- ARROW RIGHT -->
<path d="M 148 155 L 158 185" fill="none" stroke="black" stroke-width="2" />
<text x = "579" y = "263" font-family = "Arial" font-size = "16"> ,  </text>
<!-- BOUND LINE -->
<path d="M 105 140 L 120 155" fill="none" stroke="black" stroke-width="2" />
<!-- Line After Bound -->
<path d="M 120 155 L 120 280" fill="none" stroke="black" stroke-width="2" />
<!-- LINE: -->
<path d="M 120 280 L 120 340" fill="none" stroke="black" stroke-width="2" />
<!-- LINE: -->
<path d="M 120 340 L 760 340" fill="none" stroke="black" stroke-width="2" />
<!-- LINE: -->
<path d="M 760 340 L 760 340" fill="none" stroke="black" stroke-width="2" />
<!-- LINE: -->
<path d="M 760 340 L 780 340" fill="none" stroke="black" stroke-width="2" />
<!-- ARROS LEFT -->
<path d="M 780 340 L 750 330" fill="none" stroke="black" stroke-width="2" />
<!-- ARROW RIGHT -->
<path d="M 780 340 L 750 350" fill="none" stroke="black" stroke-width="2" />
<!-- LAST VERTICAL: -->
<!-- LINE: -->
<path d="M 780 340 L 780 155" fill="none" stroke="black" stroke-width="2" />
<!-- Incoming Line -->
<path d="M 780 155 L 795 140" fill="none" stroke="black" stroke-width="2" />
<!-- ARROS LEFT -->
<path d="M 780 155 L 770 185" fill="none" stroke="black" stroke-width="2" />
<!-- ARROW RIGHT -->
<path d="M 780 155 L 790 185" fill="none" stroke="black" stroke-width="2" />
<text x = "854" y = "144" font-family = "Arial" font-size = "16"> ]  </text>
<!-- LINE: -->
<path d="M 880 141 L 956 141" fill="none" stroke="black" stroke-width="2" />
<!-- ARROS LEFT -->
<path d="M 956 141 L 926 131" fill="none" stroke="black" stroke-width="2" />
<!-- ARROW RIGHT -->
<path d="M 956 141 L 926 151" fill="none" stroke="black" stroke-width="2" />
</svg>
